<mxfile host="app.diagrams.net" modified="2023-05-27T17:01:48.885Z" agent="Mozilla/5.0 (Windows NT 10.0; Win64; x64) AppleWebKit/537.36 (KHTML, like Gecko) Chrome/112.0.0.0 Safari/537.36 OPR/98.0.0.0" etag="rkOz6Cq4bUts6hU5VsAl" version="21.3.4" type="device">
  <diagram name="Page-1" id="VKMU4g4UH0HTz8x48zFp">
    <mxGraphModel dx="553" dy="308" grid="0" gridSize="10" guides="1" tooltips="1" connect="1" arrows="1" fold="1" page="1" pageScale="1" pageWidth="827" pageHeight="1169" background="#ffffff" math="0" shadow="0">
      <root>
        <mxCell id="0" />
        <mxCell id="1" parent="0" />
        <mxCell id="JUZib6-nhp5S9tP7I-Et-2" value="" style="rounded=0;whiteSpace=wrap;html=1;fillColor=#f9f7ed;strokeColor=#36393d;" vertex="1" parent="1">
          <mxGeometry x="200" y="363" width="165" height="102" as="geometry" />
        </mxCell>
        <mxCell id="JUZib6-nhp5S9tP7I-Et-5" value="&lt;font color=&quot;#000000&quot;&gt;&lt;span style=&quot;font-size: 17px;&quot;&gt;&lt;b&gt;C&lt;/b&gt;&lt;/span&gt;&lt;/font&gt;" style="text;html=1;strokeColor=none;fillColor=none;align=center;verticalAlign=middle;whiteSpace=wrap;rounded=0;" vertex="1" parent="1">
          <mxGeometry x="205" y="419" width="40" height="20" as="geometry" />
        </mxCell>
        <mxCell id="JUZib6-nhp5S9tP7I-Et-6" value="&lt;font color=&quot;#000000&quot;&gt;&lt;span style=&quot;font-size: 17px;&quot;&gt;&lt;b&gt;A&lt;/b&gt;&lt;/span&gt;&lt;/font&gt;" style="text;html=1;strokeColor=none;fillColor=none;align=center;verticalAlign=middle;whiteSpace=wrap;rounded=0;" vertex="1" parent="1">
          <mxGeometry x="200" y="360" width="50" height="40" as="geometry" />
        </mxCell>
        <mxCell id="JUZib6-nhp5S9tP7I-Et-10" value="" style="endArrow=classic;html=1;rounded=0;strokeColor=#000000;entryX=0;entryY=0.5;entryDx=0;entryDy=0;" edge="1" parent="1" target="JUZib6-nhp5S9tP7I-Et-6">
          <mxGeometry width="50" height="50" relative="1" as="geometry">
            <mxPoint x="140" y="380" as="sourcePoint" />
            <mxPoint x="380" y="460" as="targetPoint" />
          </mxGeometry>
        </mxCell>
        <mxCell id="JUZib6-nhp5S9tP7I-Et-12" value="" style="endArrow=classic;html=1;rounded=0;strokeColor=#000000;entryX=0;entryY=0.5;entryDx=0;entryDy=0;" edge="1" parent="1">
          <mxGeometry width="50" height="50" relative="1" as="geometry">
            <mxPoint x="140" y="427" as="sourcePoint" />
            <mxPoint x="200" y="427" as="targetPoint" />
          </mxGeometry>
        </mxCell>
        <mxCell id="JUZib6-nhp5S9tP7I-Et-13" value="&lt;font color=&quot;#000000&quot;&gt;&lt;span style=&quot;font-size: 16px;&quot;&gt;Verificare existenta cereri&lt;br&gt;&lt;/span&gt;&lt;/font&gt;" style="text;html=1;strokeColor=none;fillColor=none;align=center;verticalAlign=middle;whiteSpace=wrap;rounded=0;" vertex="1" parent="1">
          <mxGeometry x="240.5" y="366" width="84" height="96" as="geometry" />
        </mxCell>
        <mxCell id="JUZib6-nhp5S9tP7I-Et-20" value="" style="endArrow=classic;html=1;rounded=0;strokeColor=#000000;entryX=0;entryY=0.5;entryDx=0;entryDy=0;" edge="1" parent="1">
          <mxGeometry width="50" height="50" relative="1" as="geometry">
            <mxPoint x="365" y="382.8" as="sourcePoint" />
            <mxPoint x="425" y="382.8" as="targetPoint" />
          </mxGeometry>
        </mxCell>
        <mxCell id="JUZib6-nhp5S9tP7I-Et-23" value="&lt;font color=&quot;#000000&quot;&gt;&lt;span style=&quot;font-size: 17px;&quot;&gt;&lt;b&gt;B&lt;br&gt;&lt;/b&gt;&lt;/span&gt;&lt;/font&gt;" style="text;html=1;strokeColor=none;fillColor=none;align=center;verticalAlign=middle;whiteSpace=wrap;rounded=0;" vertex="1" parent="1">
          <mxGeometry x="200" y="385" width="50" height="40" as="geometry" />
        </mxCell>
        <mxCell id="JUZib6-nhp5S9tP7I-Et-24" value="" style="endArrow=classic;html=1;rounded=0;strokeColor=#000000;entryX=0;entryY=0.5;entryDx=0;entryDy=0;" edge="1" parent="1">
          <mxGeometry width="50" height="50" relative="1" as="geometry">
            <mxPoint x="140" y="404.65999999999997" as="sourcePoint" />
            <mxPoint x="200" y="404.65999999999997" as="targetPoint" />
          </mxGeometry>
        </mxCell>
        <mxCell id="JUZib6-nhp5S9tP7I-Et-28" value="&lt;font color=&quot;#000000&quot;&gt;&lt;span style=&quot;font-size: 17px;&quot;&gt;&lt;b&gt;CLK&lt;/b&gt;&lt;/span&gt;&lt;/font&gt;" style="text;html=1;strokeColor=none;fillColor=none;align=center;verticalAlign=middle;whiteSpace=wrap;rounded=0;" vertex="1" parent="1">
          <mxGeometry x="205" y="443" width="40" height="20" as="geometry" />
        </mxCell>
        <mxCell id="JUZib6-nhp5S9tP7I-Et-29" value="" style="endArrow=classic;html=1;rounded=0;strokeColor=#000000;entryX=0;entryY=0.5;entryDx=0;entryDy=0;" edge="1" parent="1">
          <mxGeometry width="50" height="50" relative="1" as="geometry">
            <mxPoint x="140" y="451" as="sourcePoint" />
            <mxPoint x="200" y="451" as="targetPoint" />
          </mxGeometry>
        </mxCell>
        <mxCell id="JUZib6-nhp5S9tP7I-Et-30" value="" style="endArrow=none;html=1;rounded=0;strokeColor=#000000;" edge="1" parent="1">
          <mxGeometry width="50" height="50" relative="1" as="geometry">
            <mxPoint x="171" y="386" as="sourcePoint" />
            <mxPoint x="160" y="373" as="targetPoint" />
          </mxGeometry>
        </mxCell>
        <mxCell id="JUZib6-nhp5S9tP7I-Et-31" value="&lt;font color=&quot;#000000&quot;&gt;&lt;b&gt;13&lt;/b&gt;&lt;/font&gt;" style="text;html=1;strokeColor=none;fillColor=none;align=center;verticalAlign=middle;whiteSpace=wrap;rounded=0;" vertex="1" parent="1">
          <mxGeometry x="162" y="366" width="22" height="12" as="geometry" />
        </mxCell>
        <mxCell id="JUZib6-nhp5S9tP7I-Et-32" value="&lt;font color=&quot;#000000&quot;&gt;&lt;b&gt;13&lt;/b&gt;&lt;/font&gt;" style="text;html=1;strokeColor=none;fillColor=none;align=center;verticalAlign=middle;whiteSpace=wrap;rounded=0;" vertex="1" parent="1">
          <mxGeometry x="166" y="391" width="14" height="15" as="geometry" />
        </mxCell>
        <mxCell id="JUZib6-nhp5S9tP7I-Et-33" value="" style="endArrow=none;html=1;rounded=0;strokeColor=#000000;" edge="1" parent="1">
          <mxGeometry width="50" height="50" relative="1" as="geometry">
            <mxPoint x="172" y="411.5" as="sourcePoint" />
            <mxPoint x="161" y="398.5" as="targetPoint" />
          </mxGeometry>
        </mxCell>
        <mxCell id="JUZib6-nhp5S9tP7I-Et-34" value="" style="endArrow=none;html=1;rounded=0;strokeColor=#000000;" edge="1" parent="1">
          <mxGeometry width="50" height="50" relative="1" as="geometry">
            <mxPoint x="173" y="432" as="sourcePoint" />
            <mxPoint x="162" y="419" as="targetPoint" />
          </mxGeometry>
        </mxCell>
        <mxCell id="JUZib6-nhp5S9tP7I-Et-35" value="&lt;font color=&quot;#000000&quot;&gt;&lt;b&gt;13&lt;/b&gt;&lt;/font&gt;" style="text;html=1;strokeColor=none;fillColor=none;align=center;verticalAlign=middle;whiteSpace=wrap;rounded=0;" vertex="1" parent="1">
          <mxGeometry x="166" y="413" width="14" height="15" as="geometry" />
        </mxCell>
        <mxCell id="JUZib6-nhp5S9tP7I-Et-36" value="&lt;font color=&quot;#000000&quot;&gt;&lt;span style=&quot;font-size: 17px;&quot;&gt;&lt;b&gt;Stare&lt;/b&gt;&lt;/span&gt;&lt;/font&gt;" style="text;html=1;strokeColor=none;fillColor=none;align=center;verticalAlign=middle;whiteSpace=wrap;rounded=0;" vertex="1" parent="1">
          <mxGeometry x="318" y="373" width="40" height="20" as="geometry" />
        </mxCell>
      </root>
    </mxGraphModel>
  </diagram>
</mxfile>
